<svg id="svg" version="1.1" xmlns="http://www.w3.org/2000/svg" xmlns:xlink="http://www.w3.org/1999/xlink" width="400" height="592.9961089494163" viewBox="0, 0, 400,592.9961089494163"><g id="svgg"><path id="path0" d="M178.794 2.382 C 157.233 5.193,139.032 20.149,132.314 40.575 L 131.447 43.211 130.218 41.664 C 117.985 26.267,93.018 30.775,85.651 49.711 L 84.630 52.335 84.630 85.603 L 84.630 118.872 85.532 121.401 C 86.779 124.899,89.056 128.609,91.442 131.030 C 93.170 132.784,93.352 133.108,92.738 133.322 C 78.075 138.451,70.307 148.659,70.276 162.840 C 70.236 180.740,82.581 193.105,101.060 193.674 L 106.984 193.857 107.225 195.275 C 112.414 225.845,131.743 251.670,159.252 264.786 L 164.965 267.510 164.973 269.538 L 164.981 271.565 163.327 271.994 C 128.051 281.128,98.147 301.423,77.629 330.156 L 75.406 333.268 43.831 333.463 L 12.257 333.658 10.032 334.700 C 5.350 336.895,1.952 341.430,1.172 346.526 C 0.352 351.882,0.831 579.545,1.668 582.000 C 3.256 586.662,7.736 590.753,12.630 592.011 C 16.166 592.920,383.445 592.920,386.981 592.011 C 391.875 590.753,396.355 586.662,397.943 582.000 C 398.796 579.499,399.266 351.220,398.429 346.305 C 397.583 341.341,394.155 336.845,389.579 334.700 L 387.354 333.658 355.780 333.463 L 324.205 333.268 321.980 330.156 C 301.349 301.293,271.403 280.967,236.284 271.988 L 234.630 271.565 234.630 269.528 L 234.630 267.490 238.517 265.799 C 262.427 255.397,282.459 232.195,289.880 206.308 C 290.762 203.229,292.607 194.898,292.607 193.991 C 292.607 193.917,295.277 193.775,298.541 193.675 C 340.456 192.383,339.316 132.452,297.374 132.309 L 293.385 132.296 293.385 113.436 L 293.385 94.576 295.623 93.152 C 315.771 80.321,324.202 61.568,319.092 40.954 C 313.624 18.898,301.602 7.088,280.502 3.047 C 275.666 2.120,185.328 1.530,178.794 2.382 M280.458 9.619 C 300.171 14.155,311.106 26.962,314.045 48.958 C 316.715 68.942,299.070 88.757,271.595 96.630 C 260.169 99.904,256.289 99.896,227.237 96.531 C 214.076 95.007,189.114 92.129,171.766 90.136 C 137.638 86.215,138.530 86.377,136.938 83.806 C 135.771 81.922,135.797 54.368,136.971 48.608 C 141.066 28.516,156.983 12.887,177.158 9.151 C 182.596 8.143,275.884 8.566,280.458 9.619 M114.981 39.441 C 121.618 41.218,126.931 46.236,128.791 52.482 C 129.967 56.436,130.182 114.938,129.032 118.288 C 122.285 137.938,95.244 136.885,91.088 116.810 C 90.368 113.332,90.506 56.793,91.241 53.970 C 94.014 43.325,104.810 36.717,114.981 39.441 M138.132 92.255 C 138.947 92.545,236.436 103.912,248.444 105.117 C 259.617 106.238,272.637 103.741,286.690 97.783 C 287.578 97.406,287.147 187.607,286.235 192.996 C 281.235 222.522,264.052 245.924,237.938 258.771 C 185.064 284.783,122.561 251.591,113.345 192.607 C 112.727 188.649,112.646 185.282,112.646 163.457 L 112.646 138.782 115.305 138.244 C 124.996 136.284,132.603 129.097,135.030 119.607 C 135.717 116.924,135.798 115.274,135.798 103.982 C 135.798 92.112,135.838 91.373,136.479 91.632 C 136.853 91.784,137.597 92.064,138.132 92.255 M106.307 161.284 C 106.351 173.589,106.395 184.489,106.404 185.506 L 106.420 187.354 101.556 187.299 C 97.404 187.252,96.238 187.092,93.584 186.200 C 66.795 177.207,73.302 139.095,101.654 138.936 L 106.226 138.911 106.307 161.284 M304.490 139.500 C 319.557 143.330,327.376 159.958,320.592 173.739 C 316.171 182.718,307.679 187.514,296.149 187.541 L 292.882 187.549 293.134 184.572 C 293.272 182.934,293.385 171.991,293.385 160.253 L 293.385 138.911 297.778 138.911 C 300.423 138.911,303.094 139.145,304.490 139.500 M157.674 143.982 C 148.229 145.907,144.718 157.583,151.536 164.396 C 157.448 170.305,167.521 168.518,171.052 160.935 C 175.161 152.112,167.211 142.038,157.674 143.982 M246.678 143.923 C 235.389 146.266,233.484 161.714,243.857 166.789 C 248.622 169.120,254.422 167.901,258.117 163.791 C 265.698 155.359,257.786 141.617,246.678 143.923 M183.355 197.493 C 180.349 199.599,183.575 210.027,188.899 215.413 C 202.194 228.863,225.124 220.576,226.716 201.746 C 227.238 195.573,221.526 194.667,220.813 200.811 C 220.047 207.409,216.959 211.871,211.302 214.552 C 201.107 219.383,188.327 211.450,188.327 200.290 C 188.327 197.535,185.536 195.965,183.355 197.493 M177.084 270.991 C 192.268 274.824,207.824 274.810,222.763 270.950 C 224.903 270.397,227.068 269.854,227.574 269.744 L 228.494 269.542 228.307 281.755 C 228.098 295.451,227.776 297.557,225.076 302.871 C 213.218 326.212,178.839 322.363,172.344 296.968 C 171.696 294.434,171.105 269.637,171.693 269.652 C 171.746 269.654,174.172 270.256,177.084 270.991 M165.468 287.451 C 165.658 297.793,166.027 299.794,168.739 305.183 C 183.063 333.648,224.077 330.054,233.122 299.541 C 233.842 297.113,234.001 295.345,234.201 287.549 L 234.436 278.405 235.409 278.541 C 249.101 280.455,276.410 294.356,291.634 307.162 C 300.504 314.623,315.939 331.132,315.952 333.171 C 315.953 333.332,263.687 333.463,199.805 333.463 C 135.924 333.463,83.658 333.362,83.658 333.239 C 83.658 333.116,84.480 331.934,85.486 330.612 C 102.121 308.758,126.132 291.254,151.751 282.303 C 155.394 281.030,164.378 278.276,165.042 278.228 C 165.183 278.218,165.374 282.369,165.468 287.451 M386.084 340.297 C 388.033 340.962,390.271 342.905,391.342 344.862 C 392.358 346.722,392.616 577.396,391.605 580.074 C 390.713 582.434,389.252 584.014,386.981 585.071 L 385.019 585.985 199.805 585.985 L 14.591 585.985 12.630 585.071 C 10.359 584.014,8.897 582.434,8.006 580.074 C 6.994 577.396,7.252 346.722,8.269 344.862 C 9.300 342.977,11.563 340.962,13.367 340.322 C 15.904 339.423,383.445 339.398,386.084 340.297 M176.265 413.764 C 169.970 415.497,169.148 416.523,156.726 438.149 C 144.361 459.675,144.181 460.100,145.146 465.422 C 145.709 468.529,145.666 468.447,157.425 488.816 C 168.323 507.693,169.402 509.175,173.695 511.159 L 176.070 512.257 199.805 512.257 L 223.541 512.257 225.916 511.159 C 230.262 509.151,231.254 507.776,242.785 487.792 C 258.456 460.635,258.447 465.225,242.883 438.140 C 230.404 416.422,229.345 415.126,222.876 413.634 C 220.298 413.039,178.473 413.156,176.265 413.764 M223.597 420.319 C 225.976 421.621,227.152 423.397,237.320 441.029 C 249.381 461.943,249.374 461.928,248.187 465.409 C 247.547 467.285,227.330 502.310,226.152 503.584 C 223.656 506.281,224.207 506.226,199.797 506.226 L 177.795 506.226 175.887 505.259 C 173.320 503.958,173.466 504.179,161.975 484.241 C 150.086 463.611,150.212 463.900,151.518 460.241 C 152.035 458.795,171.548 424.697,172.813 423.031 C 173.816 421.710,175.377 420.572,176.985 419.990 C 179.394 419.119,221.953 419.419,223.597 420.319 " stroke="none" fill="#050505" fill-rule="evenodd"></path><path id="path1" d="M177.158 9.151 C 156.983 12.887,141.066 28.516,136.971 48.608 C 135.797 54.368,135.771 81.922,136.938 83.806 C 138.530 86.377,137.638 86.215,171.766 90.136 C 189.114 92.129,214.076 95.007,227.237 96.531 C 256.289 99.896,260.169 99.904,271.595 96.630 C 299.070 88.757,316.715 68.942,314.045 48.958 C 311.106 26.962,300.171 14.155,280.458 9.619 C 275.884 8.566,182.596 8.143,177.158 9.151 M105.688 39.343 C 98.950 40.925,93.095 46.853,91.241 53.970 C 90.506 56.793,90.368 113.332,91.088 116.810 C 95.244 136.885,122.285 137.938,129.032 118.288 C 130.182 114.938,129.967 56.436,128.791 52.482 C 125.972 43.013,115.478 37.045,105.688 39.343 M135.880 103.210 C 135.963 114.965,136.094 113.630,136.282 99.124 C 136.337 94.897,136.250 91.439,136.089 91.439 C 135.929 91.440,135.835 96.736,135.880 103.210 M172.083 155.837 C 172.087 156.693,172.167 156.997,172.260 156.513 C 172.353 156.029,172.349 155.329,172.252 154.957 C 172.154 154.585,172.078 154.981,172.083 155.837 M83.463 180.156 C 84.299 181.012,85.070 181.712,85.177 181.712 C 85.284 181.712,84.688 181.012,83.852 180.156 C 83.016 179.300,82.245 178.599,82.138 178.599 C 82.031 178.599,82.627 179.300,83.463 180.156 M315.740 180.253 L 314.202 181.907 315.856 180.369 C 317.394 178.938,317.689 178.599,317.394 178.599 C 317.331 178.599,316.586 179.343,315.740 180.253 M112.542 184.436 C 112.542 185.185,112.622 185.491,112.720 185.117 C 112.817 184.742,112.817 184.129,112.720 183.755 C 112.622 183.380,112.542 183.687,112.542 184.436 M106.316 184.825 C 106.316 185.574,106.396 185.880,106.494 185.506 C 106.592 185.131,106.592 184.518,106.494 184.144 C 106.396 183.769,106.316 184.076,106.316 184.825 M293.086 184.825 C 293.086 185.574,293.166 185.880,293.264 185.506 C 293.362 185.131,293.362 184.518,293.264 184.144 C 293.166 183.769,293.086 184.076,293.086 184.825 M100.875 187.446 C 101.892 187.526,103.555 187.526,104.572 187.446 C 105.589 187.365,104.757 187.300,102.724 187.300 C 100.691 187.300,99.859 187.365,100.875 187.446 M294.857 187.447 C 295.988 187.526,297.739 187.525,298.748 187.445 C 299.758 187.365,298.833 187.301,296.693 187.302 C 294.553 187.303,293.727 187.368,294.857 187.447 M182.191 200.389 C 182.191 201.138,182.272 201.445,182.369 201.070 C 182.467 200.696,182.467 200.083,182.369 199.708 C 182.272 199.334,182.191 199.640,182.191 200.389 M261.266 242.121 L 259.728 243.774 261.381 242.236 C 262.291 241.390,263.035 240.646,263.035 240.583 C 263.035 240.288,262.696 240.583,261.266 242.121 M228.186 280.156 C 228.186 286.041,228.240 288.448,228.306 285.506 C 228.373 282.563,228.373 277.748,228.306 274.805 C 228.240 271.863,228.186 274.270,228.186 280.156 M234.399 284.630 C 234.399 288.054,234.459 289.403,234.531 287.627 C 234.603 285.852,234.603 283.050,234.530 281.402 C 234.457 279.753,234.398 281.206,234.399 284.630 M179.767 310.311 C 180.493 311.060,181.174 311.673,181.281 311.673 C 181.388 311.673,180.882 311.060,180.156 310.311 C 179.430 309.562,178.748 308.949,178.641 308.949 C 178.534 308.949,179.041 309.562,179.767 310.311 M219.434 310.409 L 218.093 311.868 219.553 310.527 C 220.911 309.279,221.191 308.949,220.893 308.949 C 220.828 308.949,220.172 309.606,219.434 310.409 M198.935 318.567 C 199.527 318.657,200.402 318.654,200.881 318.562 C 201.359 318.469,200.875 318.396,199.805 318.399 C 198.735 318.402,198.344 318.478,198.935 318.567 M198.742 324.796 C 199.442 324.882,200.492 324.880,201.077 324.792 C 201.662 324.703,201.089 324.632,199.805 324.634 C 198.521 324.636,198.043 324.709,198.742 324.796 M25.973 339.980 C 32.232 340.040,42.476 340.040,48.735 339.980 C 54.995 339.920,49.874 339.871,37.354 339.871 C 24.835 339.871,19.713 339.920,25.973 339.980 M151.079 463.035 C 151.079 463.998,151.155 464.392,151.247 463.911 C 151.340 463.429,151.340 462.641,151.247 462.160 C 151.155 461.678,151.079 462.072,151.079 463.035 M248.355 463.035 C 248.355 463.998,248.431 464.392,248.524 463.911 C 248.616 463.429,248.616 462.641,248.524 462.160 C 248.431 461.678,248.355 462.072,248.355 463.035 M225.851 503.599 L 224.708 504.864 225.973 503.721 C 226.668 503.092,227.237 502.523,227.237 502.456 C 227.237 502.156,226.916 502.420,225.851 503.599 M168.872 507.977 C 169.598 508.726,170.279 509.339,170.386 509.339 C 170.493 509.339,169.987 508.726,169.261 507.977 C 168.535 507.228,167.853 506.615,167.746 506.615 C 167.639 506.615,168.146 507.228,168.872 507.977 M230.329 508.074 L 228.988 509.533 230.447 508.192 C 231.806 506.944,232.086 506.615,231.788 506.615 C 231.723 506.615,231.067 507.271,230.329 508.074 M8.949 582.223 C 8.949 582.290,9.518 582.859,10.214 583.488 L 11.479 584.630 10.336 583.366 C 9.270 582.187,8.949 581.922,8.949 582.223 M389.275 583.366 L 388.132 584.630 389.397 583.488 C 390.576 582.422,390.840 582.101,390.540 582.101 C 390.473 582.101,389.904 582.670,389.275 583.366 " stroke="none" fill="#3399aa" fill-rule="evenodd"></path><path id="path2" d="M112.634 161.089 C 112.634 173.395,112.683 178.429,112.743 172.276 C 112.803 166.124,112.803 156.055,112.743 149.903 C 112.683 143.750,112.634 148.784,112.634 161.089 M261.188 155.837 C 261.192 156.693,261.272 156.997,261.365 156.513 C 261.458 156.029,261.454 155.329,261.357 154.957 C 261.259 154.585,261.183 154.981,261.188 155.837 M202.821 267.583 C 203.196 267.681,203.808 267.681,204.183 267.583 C 204.557 267.486,204.251 267.405,203.502 267.405 C 202.753 267.405,202.446 267.486,202.821 267.583 M159.542 279.811 C 130.459 288.436,105.190 305.560,86.585 329.253 C 84.975 331.303,83.658 333.089,83.658 333.221 C 83.658 333.354,135.924 333.463,199.805 333.463 C 263.687 333.463,315.953 333.354,315.953 333.221 C 315.953 333.089,314.643 331.311,313.041 329.271 C 293.892 304.886,267.626 287.359,238.035 279.220 L 234.630 278.284 234.630 283.597 C 234.629 294.963,233.302 301.465,229.757 307.478 C 216.603 329.786,184.973 330.580,170.771 308.959 C 166.547 302.528,165.370 297.602,165.370 286.356 C 165.370 281.876,165.238 278.220,165.078 278.233 C 164.917 278.246,162.426 278.956,159.542 279.811 " stroke="none" fill="#e64c4c" fill-rule="evenodd"></path><path id="path3" d="M12.405 341.165 C 10.889 341.957,10.004 342.768,9.150 344.150 L 7.977 346.048 7.877 462.648 L 7.778 579.248 8.685 580.966 C 9.887 583.244,12.311 585.050,14.875 585.578 C 16.339 585.880,69.693 585.972,201.167 585.899 L 385.409 585.798 386.965 584.958 C 388.954 583.885,390.434 582.319,391.322 580.350 C 392.173 578.461,392.644 351.234,391.805 347.171 C 391.270 344.580,389.453 342.164,387.160 340.994 L 385.409 340.100 199.947 340.089 L 14.486 340.078 12.405 341.165 M226.265 414.568 C 230.565 416.674,231.572 418.082,242.991 437.953 C 258.607 465.127,258.611 460.730,242.946 487.880 C 227.313 514.974,231.001 512.840,199.805 512.840 C 168.739 512.840,172.200 514.776,157.367 489.105 C 140.852 460.524,140.938 465.199,156.439 438.327 C 172.484 410.512,167.738 413.211,200.389 413.335 L 223.930 413.424 226.265 414.568 M175.912 420.872 C 173.404 422.121,174.139 420.997,161.500 442.927 C 150.495 462.021,150.341 462.400,152.040 466.178 C 154.072 470.695,172.878 502.608,174.210 503.800 C 176.869 506.179,177.358 506.226,199.805 506.226 C 222.252 506.226,222.738 506.180,225.404 503.800 C 226.739 502.609,245.521 470.730,247.570 466.178 C 249.279 462.382,249.119 461.989,238.109 442.906 C 225.453 420.973,226.203 422.120,223.699 420.872 L 221.637 419.844 199.805 419.844 L 177.974 419.844 175.912 420.872 " stroke="none" fill="#f5f4f4" fill-rule="evenodd"></path><path id="path4" d="M136.101 104.737 C 135.954 117.565,135.941 117.738,134.912 120.817 C 131.973 129.616,124.588 136.375,115.773 138.336 L 112.840 138.989 112.840 163.054 C 112.840 195.850,113.804 202.274,120.979 217.315 C 154.001 286.540,253.010 283.110,281.077 211.769 C 286.816 197.182,287.160 193.105,287.160 139.632 C 287.160 93.350,287.422 97.309,284.457 98.822 C 274.146 104.082,258.057 106.378,243.385 104.682 C 239.747 104.261,215.321 101.470,189.105 98.479 C 144.041 93.338,138.468 92.649,136.900 92.027 C 136.304 91.791,136.239 92.824,136.101 104.737 M95.720 139.516 C 77.124 143.509,70.366 166.522,83.840 179.967 C 89.048 185.164,94.090 187.160,102.008 187.160 L 106.226 187.160 106.226 163.035 L 106.226 138.911 102.237 138.941 C 100.044 138.958,97.111 139.217,95.720 139.516 M293.385 163.035 L 293.385 187.160 297.603 187.160 C 305.521 187.160,310.563 185.164,315.771 179.967 C 331.550 164.223,320.107 138.958,297.179 138.917 L 293.385 138.911 293.385 163.035 M165.661 144.990 C 174.531 149.526,174.444 162.404,165.514 166.773 C 157.724 170.585,148.565 165.388,147.954 156.809 C 147.270 147.225,157.144 140.634,165.661 144.990 M254.178 144.730 C 261.874 148.387,263.675 158.504,257.695 164.484 C 250.107 172.072,236.909 166.662,236.891 155.957 C 236.876 147.083,246.278 140.977,254.178 144.730 M187.334 197.408 C 187.845 197.781,188.189 198.898,188.553 201.363 C 189.797 209.777,195.481 215.301,203.455 215.848 C 212.450 216.464,220.623 209.207,220.623 200.601 C 220.623 198.230,221.758 196.887,223.764 196.887 C 229.433 196.887,227.227 208.571,220.236 215.571 C 206.824 229.000,183.777 220.540,182.227 201.619 C 181.899 197.610,184.583 195.396,187.334 197.408 M171.667 282.534 L 171.803 295.525 173.016 298.934 C 182.200 324.736,217.411 324.736,226.595 298.934 L 227.808 295.525 227.944 282.624 L 228.079 269.722 223.909 270.840 C 207.699 275.189,184.860 274.738,172.244 269.820 C 171.560 269.553,171.536 270.065,171.667 282.534 M140.727 339.981 C 185.277 340.035,258.292 340.035,302.984 339.981 C 347.675 339.926,311.226 339.881,221.984 339.881 C 132.743 339.881,96.177 339.926,140.727 339.981 M7.585 462.840 C 7.585 526.187,7.630 552.043,7.685 520.299 C 7.740 488.555,7.740 436.727,7.685 405.124 C 7.630 373.522,7.585 399.494,7.585 462.840 M189.619 419.747 C 195.359 419.808,204.639 419.807,210.241 419.747 C 215.844 419.686,211.148 419.636,199.805 419.636 C 188.463 419.636,183.879 419.686,189.619 419.747 M189.035 512.743 C 195.096 512.803,204.902 512.803,210.825 512.743 C 216.749 512.682,211.790 512.633,199.805 512.633 C 187.821 512.633,182.974 512.683,189.035 512.743 " stroke="none" fill="#f3c39b" fill-rule="evenodd"></path></g></svg>